<?xml version="1.0" encoding="utf-8"?><svg xmlns="http://www.w3.org/2000/svg" xmlns:xlink="http://www.w3.org/1999/xlink"><symbol viewBox="0 0 150 35.1" id="logo_eng" xmlns="http://www.w3.org/2000/svg"><path data-name="Combined Shape" d="M2.106 21.734l5.544-8.186c.993-1.647.667-3.135-1.094-4.325h-.005A5.5 5.5 0 005.2 8.52c-.037 0-.075-.061-.112-.077 0 0-.007-.035-.012-.037A15.533 15.533 0 00.132 7.061C.089 7.056.044 7 0 7h12.3l6.418.236c3.08 0 4.671 2.016 3.677 3.446l-8.836 12.747L5.6 34.886a7.014 7.014 0 01-.23.114zM25.292 10.74c1.008-1.456.008-2.565-1.329-2.991q-.208-.057-.416-.108a1.018 1.018 0 01-.059-.019l10.478.113c3.642.109 4.668 1.991 3.677 3.428l-5.378 7.794-16.521 5.583z"/><path d="M102 20a5.2 5.2 0 01-4.318-1.85c-.08 1.221-.666 1.741-1.958 1.741-.456 0-.456-.2-.456-.843V.843c0-.648 0-.843.456-.843 1.372 0 1.958.586 1.958 1.959v7.02a5.2 5.2 0 014.346-1.959c3.639 0 5.9 2.5 5.9 6.531a6.909 6.909 0 01-1.528 4.673A5.675 5.675 0 01102 20zm-.562-10.748c-2.89 0-3.915 2.316-3.915 4.3 0 1.946 1.025 4.217 3.915 4.217 2.4 0 3.889-1.616 3.889-4.217 0-2.079-1.027-4.3-3.889-4.3zM89.584 19.973c-2.342 0-3.433-1.409-3.433-4.435V9.306h-1.287c-.66 0-.751-.093-.751-.761v-.572c0-.679.105-.789.751-.789h1.287v-.136c0-3.078 1.21-3.538 1.931-3.538.482 0 .482.185.482.871v2.8H91.6c.645 0 .751.111.751.789v.571c0 .669-.091.761-.751.761h-3.03v6.15c0 2.088 1.2 2.313 1.716 2.313a4.321 4.321 0 001.814-.405.763.763 0 01.249-.057c.19 0 .261.163.261.6a2.069 2.069 0 01-.187.952c-.463.745-1.423 1.118-2.839 1.118zm-33.228 0a6.286 6.286 0 01-4.867-1.786A6.587 6.587 0 0150 13.605 6.893 6.893 0 0151.552 8.8a6.357 6.357 0 014.911-1.807 6.572 6.572 0 013.084.68c.421.251.832.594.832 1.769 0 .345-.049.532-.306.532a1.742 1.742 0 01-.525-.124 6.278 6.278 0 00-2.842-.626c-3.436 0-4.157 2.353-4.157 4.327 0 2.781 1.462 4.19 4.344 4.19a8.174 8.174 0 002.607-.456l.284-.088a3.1 3.1 0 01.616-.122c.183 0 .216.1.216.367a1.854 1.854 0 01-1.016 1.877 7.278 7.278 0 01-3.244.654zm58.089-.027c-2.83 0-4.264-1.273-4.264-3.783 0-2.441 1.476-3.483 4.935-3.483a32.06 32.06 0 013.594.218v-1.17c0-2.34-1.834-2.64-3.433-2.64A14.7 14.7 0 00112 9.5a2.32 2.32 0 01-.57.108.269.269 0 01-.258-.114.69.69 0 01-.057-.347 1.538 1.538 0 011.127-1.687 12.793 12.793 0 013.46-.463 7.269 7.269 0 013.392.7 3.809 3.809 0 012.025 3.657v7.7c0 .648 0 .843-.456.843-1.129 0-1.716-.378-1.9-1.224a6.719 6.719 0 01-4.318 1.273zm1.207-5.36c-2.028 0-3.057.248-3.057 1.6 0 1.226.8 1.8 2.521 1.8a5.358 5.358 0 003.594-1.116v-2.1a20.3 20.3 0 00-3.059-.185zm33.711 5.2h-.886a1.384 1.384 0 01-1.448-.707l-5.015-5.823v5.574c0 .819-.132.952-.939.952h-.509c-.812 0-.966-.151-.966-.952V.843c0-.643.022-.843.483-.843 1.354 0 1.931.586 1.931 1.959v10.232l4.586-4 .074-.075c.8-.808.918-.932 1.777-.932h.859c.352 0 .589.1.665.272s0 .376-.209.6l-5.257 4.735 5.23 6.123c.224.273.3.5.233.65s-.272.218-.609.218zm-14.536 0h-.537c-.807 0-.939-.133-.939-.952V12.3c0-2.094-.947-3.156-2.816-3.156-1.953 0-3.018 1.117-3.164 3.319v6.367c0 .819-.132.952-.939.952h-.509c-.812 0-.966-.151-.966-.952V8.027c0-.641.022-.843.483-.843 1.18 0 1.767.47 1.9 1.524a4.682 4.682 0 013.943-1.714c2.972 0 4.478 1.712 4.478 5.089v6.747c.005.801-.145.952-.934.952zm-54.227 0h-.563c-.79 0-.939-.151-.939-.952v-6.562c0-2.191-.758-3.211-2.387-3.211A2.992 2.992 0 0073.761 12v6.83c0 .8-.153.952-.965.952h-.51c-.821 0-.965-.142-.965-.952v-6.721c0-1.976-.816-3.02-2.361-3.02-1.719 0-2.766 1.044-2.949 2.939v6.8c0 .8-.149.952-.939.952h-.536c-.812 0-.966-.151-.966-.952V8.027c0-.641.022-.843.482-.843 1.219 0 1.8.456 1.931 1.524a4.451 4.451 0 013.781-1.714 3.471 3.471 0 013.568 2.2 4.3 4.3 0 013.942-2.2c2.79 0 4.264 1.647 4.264 4.762v7.074c.001.801-.148.952-.938.952z"/><path data-name="new bank" d="M83.3 35.099c-2.186 0-2.625-.729-2.625-1.906 0-1.372.725-1.882 2.674-1.882a12.639 12.639 0 011.366.084v-.456c0-1-.427-1.427-1.426-1.427a1.581 1.581 0 00-1.487.731c-.087.127-.138.186-.226.186a.484.484 0 01-.169-.042l-.372-.167a.319.319 0 01-.2-.161.312.312 0 01.042-.247 2.52 2.52 0 012.434-1.259 2.155 2.155 0 012.489 2.423v3.129c0 .429-.1.542-.431.683a5.487 5.487 0 01-2.069.311zm-.072-2.913c-1.061 0-1.474.282-1.474 1.007 0 .622.243 1.007 1.451 1.007a4.3 4.3 0 001.33-.144c.144-.059.18-.1.18-.264v-1.51l-.052-.005a14.218 14.218 0 00-1.43-.091zm-6.158 2.913a5.573 5.573 0 01-2.1-.372c-.382-.179-.444-.271-.444-.659v-7.732c0-.215.07-.288.276-.288h.5c.215 0 .288.073.288.288v2.517h.009a5.485 5.485 0 011.681-.3 2.144 2.144 0 012.428 2.375v1.678c0 1.655-.887 2.493-2.638 2.493zm.06-5.563a4.412 4.412 0 00-1.53.312v3.849c0 .121.014.168.168.228a3.69 3.69 0 001.232.191c1.1 0 1.63-.506 1.63-1.546v-1.606a1.309 1.309 0 00-1.499-1.428zm-18.066 5.563c-1.717 0-2.664-.885-2.664-2.493v-1.487a2.382 2.382 0 012.71-2.566 2.391 2.391 0 012.709 2.481v.7c0 .286-.141.419-.444.419h-3.906v.576c0 .927.571 1.438 1.607 1.438a1.767 1.767 0 001.666-.827c.091-.128.164-.18.253-.18a.457.457 0 01.215.072l.324.168a.316.316 0 01.181.186.353.353 0 01-.073.281 2.726 2.726 0 01-2.578 1.232zm.048-5.635a1.439 1.439 0 00-1.643 1.512v.347h3.285v-.347c0-.975-.583-1.512-1.642-1.512zm9.588 5.484h-.324c-.234 0-.337-.064-.408-.252l-1.068-3.54c-.08-.3-.133-.606-.171-.831a2.493 2.493 0 00-.056-.284h-.048c-.007.028-.018.092-.034.182-.038.219-.1.585-.194.934l-1.064 3.535c-.061.211-.191.252-.4.252h-.312c-.2 0-.334-.041-.4-.252l-1.669-5.623c-.047-.147-.052-.223-.017-.27s.109-.066.257-.066h.36c.329 0 .455.044.5.288l.9 3.249c.076.3.136.7.181.994.025.167.045.3.059.348h.048a3.562 3.562 0 00.077-.391 9.719 9.719 0 01.2-.963l.983-3.141c.072-.239.128-.3.48-.3h.22c.332 0 .394.058.467.288l1 3.129a10.486 10.486 0 01.225 1.1c.022.136.038.234.05.276h.06c.013-.046.026-.152.045-.3a10.371 10.371 0 01.176-1.062l.9-3.225c.058-.234.154-.288.516-.288h.311c.14 0 .212.019.246.064s.027.147-.007.272l-1.7 5.622c-.048.18-.155.255-.389.255zm30.044-.024h-.468c-.322 0-.382-.032-.491-.264l-.825-1.742a1.033 1.033 0 00-1.079-.66h-1.007v2.362c0 .23-.07.3-.3.3h-.468c-.23 0-.3-.07-.3-.3v-8.284c0-.218.073-.288.3-.288h.468c.227 0 .3.07.3.288v4.927h.971l1.787-2.315c.156-.216.242-.216.563-.216h.455c.145 0 .233.03.262.089s0 .14-.082.246l-1.918 2.4a1.788 1.788 0 01.958.983l1.055 2.134c.072.131.091.212.06.264s-.104.071-.238.071zm-6.678 0h-.5c-.215 0-.287-.072-.287-.287v-3.673c0-.96-.49-1.427-1.5-1.427a4.536 4.536 0 00-1.391.216.2.2 0 00-.143.216v4.663c0 .215-.073.287-.288.287h-.5c-.206 0-.275-.072-.275-.287v-5a.592.592 0 01.455-.671 5.759 5.759 0 012.29-.408 2.485 2.485 0 011.847.63 2.4 2.4 0 01.588 1.745v3.7c-.005.22-.078.291-.293.291zm-37.177 0h-.5c-.215 0-.287-.072-.287-.287v-3.673c0-.96-.49-1.427-1.5-1.427a4.536 4.536 0 00-1.391.211.2.2 0 00-.143.216v4.668c0 .215-.073.287-.288.287h-.5c-.211 0-.28-.071-.28-.287v-5a.592.592 0 01.455-.671 5.759 5.759 0 012.29-.408 2.485 2.485 0 011.847.63 2.4 2.4 0 01.588 1.745v3.7c0 .22-.073.291-.289.291z"/></symbol></svg>