<svg xmlns="http://www.w3.org/2000/svg" width="38" height="51"><defs><linearGradient id="a" x1="1" x2="0" y2=".817" gradientUnits="objectBoundingBox"><stop offset="0" stop-color="#ff3c3c"/><stop offset="1" stop-color="#f10f80"/></linearGradient></defs><path d="M21.606 16.333C18.783 14.019 11.284 7.868 10.18 3.891A5.178 5.178 0 003.757.208 5.416 5.416 0 00.2 6.864c1.868 6.731 8.7 12.771 14.961 17.9a1.01 1.01 0 001.457-.179 1.1 1.1 0 00-.17-1.51C10.446 18.153 3.9 12.386 2.2 6.268a3.252 3.252 0 012.13-3.993 3.109 3.109 0 013.855 2.21c1.136 4.089 6.772 9.138 12.134 13.535a1.011 1.011 0 001.457-.176 1.1 1.1 0 00-.17-1.511z" transform="translate(13 21)" fill="url(#a)"/><path data-name="Shape" d="M36.612 15.208c-2.456-2.029-6.045-5.046-6.569-5.546a13.577 13.577 0 00-24.975-2.5 14.036 14.036 0 00-1.178 10.58c1.724 6.1-1.976 7.793-3.152 8.168a1.07 1.07 0 00-.69 1.34 1.052 1.052 0 001 .751 1.028 1.028 0 00.311-.049c3.217-1.023 6.337-4.466 4.546-10.8a11.888 11.888 0 011-8.951 11.492 11.492 0 0121.185 2.278 1.109 1.109 0 00.1.235c.109.184.334.571 7.094 6.154a1.035 1.035 0 001.478-.156 1.083 1.083 0 00-.15-1.504z" transform="translate(1 13)" fill="url(#a)"/><path data-name="Shape" d="M32.6 16.386c-7.9-6.328-9.253-8.334-9.549-9.374A9.588 9.588 0 0011.191.375C6.277 1.805 3.45 6.932 4.614 12.3c2.15 9.9.545 12.2-3.867 13.592A1.078 1.078 0 001.065 28a1.125 1.125 0 00.315-.045c6.164-1.947 7.5-6.012 5.312-16.11C5.77 7.6 7.957 3.561 11.777 2.45A7.453 7.453 0 0121 7.611c.415 1.465 1.552 3.483 10.275 10.466a1.053 1.053 0 001.495-.177 1.087 1.087 0 00-.17-1.514z" transform="translate(4 17)" fill="url(#a)"/><path data-name="Shape" d="M15.688 15.185a28.2 28.2 0 00-2.46-1.978C9.618 10.479 3.577 5.915 2.092.768a1.067 1.067 0 00-2.05.589C1.723 7.183 8.119 12.015 11.94 14.9a28.545 28.545 0 012.24 1.787 1.074 1.074 0 00.755.31 1.063 1.063 0 00.753-1.815z" transform="translate(17 25)" fill="url(#a)"/><path data-name="Shape" d="M10.678 4.831a10.016 10.016 0 01-.788-1.017C8.8 2.295 7.145 0 4.4 0 .671 0 .084 6.5 0 7.805A1.117 1.117 0 001.032 9h.07A1.112 1.112 0 002.2 7.945C2.341 5.618 3.21 2.25 4.4 2.25c1.632 0 2.787 1.606 3.716 2.9a11.994 11.994 0 001.007 1.272 1.083 1.083 0 001.555 0 1.144 1.144 0 000-1.591z" transform="translate(15 42)" fill="url(#a)"/><path data-name="Shape" d="M6.669.757a1.12 1.12 0 00-1.407-.7 1.075 1.075 0 00-.726 1.36c.957 2.9-.928 8.58-3.761 9.471a1.078 1.078 0 00-.719 1.365A1.119 1.119 0 001.122 13a1.167 1.167 0 00.343-.052C5.779 11.594 7.859 4.355 6.669.757z" transform="translate(8 36)" fill="url(#a)"/><path data-name="Shape" d="M37.27 13.773c-1.319-.429-2.356-2.1-3.557-4.039C31.169 5.626 27.684 0 17.943 0A17.964 17.964 0 000 17.944a1.056 1.056 0 102.111 0A15.849 15.849 0 0117.944 2.111c8.564 0 11.564 4.843 13.975 8.734 1.419 2.291 2.643 4.269 4.7 4.936a1.055 1.055 0 10.652-2.008z" transform="translate(0 8)" fill="url(#a)"/><path data-name="Shape" d="M2.894 3.552A8.874 8.874 0 012 1a1 1 0 10-2 0 10.234 10.234 0 001.1 3.448A1 1 0 002 5a.981.981 0 00.446-.106 1 1 0 00.448-1.342z" transform="translate(0 30)" fill="url(#a)"/><path data-name="Shape" d="M32.845 6.482C31.384 4.22 24.935 0 15.968 0 6.432 0 1.32 4.678.155 6.482a.963.963 0 00.358 1.372 1.1 1.1 0 001.461-.336C2.9 6.086 7.456 2 15.968 2c8.184 0 14.007 3.894 15.057 5.518a1.076 1.076 0 00.911.482 1.111 1.111 0 00.551-.144.966.966 0 00.358-1.374z" transform="translate(1 4)" fill="url(#a)"/><path data-name="Shape" d="M22.295 2.056c-.406-.134-.79-.272-1.175-.408C18.841.838 16.485 0 10.455 0 4.93 0 3.543.68 1.787 1.54c-.355.174-.73.358-1.171.548a.984.984 0 00-.524 1.321 1.065 1.065 0 001.382.5c.479-.2.886-.4 1.271-.592C4.3 2.554 5.435 2 10.455 2c5.653 0 7.733.74 9.935 1.524.4.14.8.284 1.223.422a1.122 1.122 0 00.341.054 1.047 1.047 0 00.989-.674.989.989 0 00-.648-1.27z" transform="translate(6)" fill="url(#a)"/><path data-name="Shape" d="M3.952 4.7a25.131 25.131 0 00-2.1-4.222 1 1 0 00-1.7 1.048A23.684 23.684 0 012.048 5.3 1 1 0 003 6a1.016 1.016 0 00.3-.048A1 1 0 003.952 4.7z" transform="translate(34 13)" fill="url(#a)"/></svg>