<svg xmlns="http://www.w3.org/2000/svg" width="50" height="24"><defs><linearGradient id="a" x1="1" x2="0" y2=".817" gradientUnits="objectBoundingBox"><stop offset="0" stop-color="#ff3c3c"/><stop offset="1" stop-color="#f10f80"/></linearGradient></defs><path d="M31.613 24a5.349 5.349 0 01-5.308-5.378 5.4 5.4 0 01.8-2.84l-5.827-5.9a5.238 5.238 0 01-5.791 0l-5.732 5.809A5.386 5.386 0 015.309 24a5.378 5.378 0 010-10.755 5.236 5.236 0 012.894.873l5.736-5.809a5.309 5.309 0 118.894 0l5.8 5.87a5.235 5.235 0 015.881-.06l5.73-5.809a5.295 5.295 0 114.447 2.444 5.225 5.225 0 01-2.891-.873l-5.74 5.81A5.387 5.387 0 0131.613 24zm0-8.532a3.155 3.155 0 103.115 3.155 3.138 3.138 0 00-3.115-3.155zm-26.3 0a3.155 3.155 0 103.114 3.155 3.138 3.138 0 00-3.118-3.155zM44.691 2.223a3.155 3.155 0 103.114 3.154 3.138 3.138 0 00-3.114-3.154zm-26.305 0A3.155 3.155 0 1021.5 5.378a3.138 3.138 0 00-3.114-3.155z" fill="url(#a)"/><path data-name="Shape" d="M4.637.363a1.24 1.24 0 00-1.753 0L.363 2.884a1.239 1.239 0 101.753 1.753l2.521-2.521a1.239 1.239 0 000-1.753z" transform="translate(13 13)" fill="url(#a)"/><path data-name="Shape" d="M4.637.363a1.24 1.24 0 00-1.753 0L.363 2.884a1.239 1.239 0 101.753 1.753l2.521-2.521a1.239 1.239 0 000-1.753z" transform="translate(32 6)" fill="url(#a)"/></svg>