<svg xmlns="http://www.w3.org/2000/svg" width="44" height="47"><defs><linearGradient id="a" x1="1" x2="0" y2=".817" gradientUnits="objectBoundingBox"><stop offset="0" stop-color="#ff3c3c"/><stop offset="1" stop-color="#f10f80"/></linearGradient></defs><path d="M41 32H11a2.961 2.961 0 01-3-2.914v-.971H6A2.961 2.961 0 013 25.2v-1.942a2.961 2.961 0 013-2.913h2v-3.886a7.9 7.9 0 01-8-7.77v-.187A7.708 7.708 0 017.809.918a8.484 8.484 0 015 1.628 8.086 8.086 0 013.007 4.2h4.51A7.9 7.9 0 0127.2.069 8.337 8.337 0 0128.262 0 8.127 8.127 0 0133.5 1.908a7.7 7.7 0 012.68 4.838H41a2.961 2.961 0 013 2.914v19.426A2.961 2.961 0 0141 32zm-31-3.885v.971a.987.987 0 001 .971h30a.987.987 0 001-.971V9.66a.987.987 0 00-1-.971H11a.987.987 0 00-1 .971v10.685h4a.987.987 0 011 .971v5.827a.987.987 0 01-1 .972zm-4-5.828a.987.987 0 00-1 .971V25.2a.987.987 0 001 .971h7v-3.884zM7.782 2.86h-.123A5.857 5.857 0 003.531 4.7 5.54 5.54 0 002 8.689a5.922 5.922 0 006 5.828V9.66a2.961 2.961 0 013-2.914h2.7A6.354 6.354 0 007.782 2.86zm20.469-.971a5.937 5.937 0 00-5.91 4.856H34.16a5.937 5.937 0 00-5.909-4.856z" transform="translate(0 15)" fill="url(#a)"/><path transform="translate(6 38)" fill="url(#a)" d="M0 0h2v2H0z"/><path data-name="Shape" d="M8 15a7.771 7.771 0 01-8-7.5A7.771 7.771 0 018 0a7.771 7.771 0 018 7.5A7.771 7.771 0 018 15zM8 1.875A5.828 5.828 0 002 7.5a5.828 5.828 0 006 5.625A5.828 5.828 0 0014 7.5a5.828 5.828 0 00-6-5.625z" transform="translate(12)" fill="url(#a)"/><path data-name="Shape" d="M3.6 5H6c0-2.761-2.686-5-6-5v2c1.988 0 3.6 1.343 3.6 3z" transform="translate(19 3)" fill="url(#a)"/><path data-name="Shape" d="M3.6 3H0v2h4.8A1.114 1.114 0 006 4V0H3.6v3z" transform="translate(35 38)" fill="url(#a)"/><path data-name="Shape" d="M3.519 13a.91.91 0 00.666-.29L7 9.709l-1.37-1.42-.938 1V0H2.815v9.839L1.37 8.289 0 9.709l2.815 3a.908.908 0 00.704.291z" transform="translate(28)" fill="url(#a)"/><path data-name="Shape" d="M2.834 14.709a.908.908 0 001.332 0l2.834-3-1.332-1.42-.945 1V0H2.834v11.839L1.379 10.3 0 11.709z" transform="translate(35 3)" fill="url(#a)"/></svg>