<svg id="shuffle" xmlns="http://www.w3.org/2000/svg" xmlns:xlink="http://www.w3.org/1999/xlink" width="42.002" height="37" viewBox="0 0 42.002 37">
  <defs>
    <linearGradient id="linear-gradient" x1="1" x2="0" y2="0.817" gradientUnits="objectBoundingBox">
      <stop offset="0" stop-color="#ff3c3c"/>
      <stop offset="1" stop-color="#f10f80"/>
    </linearGradient>
  </defs>
  <path id="Shape" d="M16.565,3.818l1.277-2.151A1.114,1.114,0,0,0,17.5.165,1.018,1.018,0,0,0,16.062.52L14.785,2.671c-2.316,3.9-5.621,6.142-9.079,6.142H1.039a1.095,1.095,0,0,0,0,2.187H5.715C9.913,10.982,13.865,8.369,16.565,3.818Z" transform="translate(0 22)" fill="url(#linear-gradient)"/>
  <path id="Shape-2" data-name="Shape" d="M1.034,15a1.032,1.032,0,0,1-.54-.156,1.076,1.076,0,0,1-.337-1.46L.932,12.1C3.608,7.675,7.526,5.138,11.681,5.138h4.8L13.225,1.8a1.075,1.075,0,0,1,0-1.494,1.013,1.013,0,0,1,1.46,0L19.7,5.449A1.075,1.075,0,0,1,19.7,6.943l-5.019,5.139a1.023,1.023,0,0,1-1.468,0,1.075,1.075,0,0,1,0-1.494l3.256-3.334H11.681c-3.423,0-6.7,2.172-8.994,5.958L1.912,14.5A1.037,1.037,0,0,1,1.034,15Z" transform="translate(22)" fill="url(#linear-gradient)"/>
  <path id="Shape-3" data-name="Shape" d="M35.847,32a1.054,1.054,0,0,1-.745-.3,1.025,1.025,0,0,1-.3-.739.983.983,0,0,1,.3-.7L38.409,27H33.687c-4.222,0-8.2-2.482-10.917-6.809L15.04,7.9C12.706,4.2,9.377,2.075,5.9,2.075H1.046A1.043,1.043,0,0,1,0,1.038,1.043,1.043,0,0,1,1.046,0H5.913c4.226,0,8.205,2.478,10.918,6.8l7.73,12.292c2.331,3.705,5.661,5.83,9.135,5.83h4.722L35.11,21.665a1.017,1.017,0,0,1,0-1.459,1.056,1.056,0,0,1,1.482,0l5.1,5.011a1.018,1.018,0,0,1,0,1.46l-5.1,5.019A1.054,1.054,0,0,1,35.847,32Z" transform="translate(0 5)" fill="url(#linear-gradient)"/>
</svg>
