<svg xmlns="http://www.w3.org/2000/svg" width="42.002" height="37"><defs><linearGradient id="a" x1="1" x2="0" y2=".817" gradientUnits="objectBoundingBox"><stop offset="0" stop-color="#ff3c3c"/><stop offset="1" stop-color="#f10f80"/></linearGradient></defs><path d="M16.565 3.818l1.277-2.151A1.114 1.114 0 0017.5.165a1.018 1.018 0 00-1.438.355l-1.277 2.151c-2.316 3.9-5.621 6.142-9.079 6.142H1.039a1.095 1.095 0 000 2.187h4.676c4.198-.018 8.15-2.631 10.85-7.182z" transform="translate(0 22)" fill="url(#a)"/><path data-name="Shape" d="M1.034 15a1.032 1.032 0 01-.54-.156 1.076 1.076 0 01-.337-1.46L.932 12.1c2.676-4.425 6.594-6.962 10.749-6.962h4.8L13.225 1.8a1.075 1.075 0 010-1.494 1.013 1.013 0 011.46 0L19.7 5.449a1.075 1.075 0 010 1.494l-5.019 5.139a1.023 1.023 0 01-1.468 0 1.075 1.075 0 010-1.494l3.256-3.334h-4.788c-3.423 0-6.7 2.172-8.994 5.958L1.912 14.5a1.037 1.037 0 01-.878.5z" transform="translate(22)" fill="url(#a)"/><path data-name="Shape" d="M35.847 32a1.054 1.054 0 01-.745-.3 1.025 1.025 0 01-.3-.739.983.983 0 01.3-.7L38.409 27h-4.722c-4.222 0-8.2-2.482-10.917-6.809L15.04 7.9C12.706 4.2 9.377 2.075 5.9 2.075H1.046A1.043 1.043 0 010 1.038 1.043 1.043 0 011.046 0h4.867c4.226 0 8.205 2.478 10.918 6.8l7.73 12.292c2.331 3.705 5.661 5.83 9.135 5.83h4.722l-3.308-3.257a1.017 1.017 0 010-1.459 1.056 1.056 0 011.482 0l5.1 5.011a1.018 1.018 0 010 1.46l-5.1 5.019a1.054 1.054 0 01-.745.304z" transform="translate(0 5)" fill="url(#a)"/></svg>