<svg id="logo_eng" xmlns="http://www.w3.org/2000/svg" xmlns:xlink="http://www.w3.org/1999/xlink" width="150" height="35.1" viewBox="0 0 150 35.1">
  <defs>
    <linearGradient id="linear-gradient" x1="0.471" y1="1" x2="0.471" gradientUnits="objectBoundingBox">
      <stop offset="0" stop-color="#0be7ff"/>
      <stop offset="1" stop-color="#3fccff"/>
    </linearGradient>
  </defs>
  <path id="Combined_Shape" data-name="Combined Shape" d="M2.106,14.734,7.65,6.548c.993-1.647.667-3.135-1.094-4.325,0,0,0,0-.005,0l0,0A5.5,5.5,0,0,0,5.2,1.52h0c-.037,0-.075-.061-.112-.077,0,0-.007-.035-.012-.037A15.533,15.533,0,0,0,.132.061C.089.056.044,0,0,0H12.3l6.418.236c3.08,0,4.671,2.016,3.677,3.446L13.559,16.429,5.6,27.886c-.076.039-.153.078-.23.114ZM25.292,3.74C26.3,2.284,25.3,1.175,23.963.749q-.208-.057-.416-.108c-.02-.006-.04-.012-.059-.019L33.966.735c3.642.109,4.668,1.991,3.677,3.428l-5.378,7.794L15.744,17.54Z" transform="translate(0 7)" fill="url(#linear-gradient)"/>
  <path id="CMTBANK" d="M52,20a5.2,5.2,0,0,1-4.318-1.85c-.08,1.221-.666,1.741-1.958,1.741-.456,0-.456-.2-.456-.843V.843c0-.648,0-.843.456-.843,1.372,0,1.958.586,1.958,1.959v7.02A5.2,5.2,0,0,1,52.028,7.02c3.639,0,5.9,2.5,5.9,6.531A6.909,6.909,0,0,1,56.4,18.224,5.675,5.675,0,0,1,52,20ZM51.438,9.252c-2.89,0-3.915,2.316-3.915,4.3,0,1.946,1.025,4.217,3.915,4.217,2.4,0,3.889-1.616,3.889-4.217C55.327,11.473,54.3,9.252,51.438,9.252ZM39.584,19.973c-2.342,0-3.433-1.409-3.433-4.435V9.306H34.864c-.66,0-.751-.093-.751-.761V7.973c0-.679.105-.789.751-.789h1.287V7.048c0-3.078,1.21-3.538,1.931-3.538.482,0,.482.185.482.871v2.8H41.6c.645,0,.751.111.751.789v.571c0,.669-.091.761-.751.761h-3.03v6.15c0,2.088,1.2,2.313,1.716,2.313A4.321,4.321,0,0,0,42.1,17.36a.763.763,0,0,1,.249-.057c.19,0,.261.163.261.6a2.069,2.069,0,0,1-.187.952C41.96,19.6,41,19.973,39.584,19.973Zm-33.228,0a6.286,6.286,0,0,1-4.867-1.786A6.587,6.587,0,0,1,0,13.605,6.893,6.893,0,0,1,1.552,8.8,6.357,6.357,0,0,1,6.463,6.993a6.572,6.572,0,0,1,3.084.68c.421.251.832.594.832,1.769,0,.345-.049.532-.306.532a1.742,1.742,0,0,1-.525-.124,6.278,6.278,0,0,0-2.842-.626c-3.436,0-4.157,2.353-4.157,4.327,0,2.781,1.462,4.19,4.344,4.19A8.174,8.174,0,0,0,9.5,17.285c.1-.032.2-.061.284-.088a3.1,3.1,0,0,1,.616-.122c.183,0,.216.1.216.367A1.854,1.854,0,0,1,9.6,19.319,7.278,7.278,0,0,1,6.356,19.973Zm58.089-.027c-2.83,0-4.264-1.273-4.264-3.783,0-2.441,1.476-3.483,4.935-3.483a32.06,32.06,0,0,1,3.594.218v-1.17c0-2.34-1.834-2.64-3.433-2.64A14.7,14.7,0,0,0,62,9.5a2.32,2.32,0,0,1-.57.108.269.269,0,0,1-.258-.114.69.69,0,0,1-.057-.347,1.538,1.538,0,0,1,1.127-1.687,12.793,12.793,0,0,1,3.46-.463,7.269,7.269,0,0,1,3.392.7,3.809,3.809,0,0,1,2.025,3.657v7.7c0,.648,0,.843-.456.843-1.129,0-1.716-.378-1.9-1.224A6.719,6.719,0,0,1,64.445,19.946Zm1.207-5.36c-2.028,0-3.057.248-3.057,1.6,0,1.226.8,1.8,2.521,1.8a5.358,5.358,0,0,0,3.594-1.116v-2.1A20.3,20.3,0,0,0,65.651,14.585Zm33.711,5.2h-.886a1.384,1.384,0,0,1-1.448-.707l-5.015-5.823V18.83c0,.819-.132.952-.939.952h-.509c-.812,0-.966-.151-.966-.952V.843C89.6.2,89.622,0,90.083,0c1.354,0,1.931.586,1.931,1.959V12.191l4.586-4,.074-.075c.8-.808.918-.932,1.777-.932h.859c.352,0,.589.1.665.272s0,.376-.209.6l-5.257,4.735,5.23,6.123c.224.273.3.5.233.65S99.7,19.782,99.363,19.782Zm-14.536,0H84.29c-.807,0-.939-.133-.939-.952V12.3c0-2.094-.947-3.156-2.816-3.156-1.953,0-3.018,1.117-3.164,3.319V18.83c0,.819-.132.952-.939.952h-.509c-.812,0-.966-.151-.966-.952V8.027c0-.641.022-.843.483-.843,1.18,0,1.767.47,1.9,1.524a4.682,4.682,0,0,1,3.943-1.714c2.972,0,4.478,1.712,4.478,5.089V18.83C85.766,19.631,85.616,19.782,84.827,19.782Zm-54.227,0h-.563c-.79,0-.939-.151-.939-.952V12.272c0-2.191-.758-3.211-2.387-3.211A2.992,2.992,0,0,0,23.761,12v6.83c0,.8-.153.952-.965.952h-.51c-.821,0-.965-.142-.965-.952V12.109c0-1.976-.816-3.02-2.361-3.02-1.719,0-2.766,1.044-2.949,2.939v6.8c0,.8-.149.952-.939.952h-.536c-.812,0-.966-.151-.966-.952V8.027c0-.641.022-.843.482-.843,1.219,0,1.8.456,1.931,1.524a4.451,4.451,0,0,1,3.781-1.714,3.471,3.471,0,0,1,3.568,2.2,4.3,4.3,0,0,1,3.942-2.2c2.79,0,4.264,1.647,4.264,4.762V18.83C31.539,19.631,31.39,19.782,30.6,19.782Z" transform="translate(50)" fill="#21262d"/>
  <path id="new_bank" data-name="new bank" d="M33.3,9.051c-2.186,0-2.625-.729-2.625-1.906,0-1.372.725-1.882,2.674-1.882a12.639,12.639,0,0,1,1.366.084V4.891c0-1-.427-1.427-1.426-1.427a1.581,1.581,0,0,0-1.487.731c-.087.127-.138.186-.226.186a.484.484,0,0,1-.169-.042l-.372-.167a.319.319,0,0,1-.2-.161.312.312,0,0,1,.042-.247,2.52,2.52,0,0,1,2.434-1.259A2.155,2.155,0,0,1,35.8,4.928V8.057c0,.429-.1.542-.431.683A5.487,5.487,0,0,1,33.3,9.051Zm-.072-2.913c-1.061,0-1.474.282-1.474,1.007,0,.622.243,1.007,1.451,1.007a4.3,4.3,0,0,0,1.33-.144c.144-.059.18-.1.18-.264V6.234l-.052-.005C34.4,6.2,33.782,6.138,33.233,6.138ZM27.07,9.051a5.573,5.573,0,0,1-2.1-.372c-.382-.179-.444-.271-.444-.659V.288c0-.215.07-.288.276-.288h.5c.215,0,.288.073.288.288V2.805l.009,0a5.485,5.485,0,0,1,1.681-.3A2.144,2.144,0,0,1,29.708,4.88V6.558C29.708,8.213,28.821,9.051,27.07,9.051Zm.06-5.563A4.412,4.412,0,0,0,25.6,3.8V7.649c0,.121.014.168.168.228A3.69,3.69,0,0,0,27,8.068c1.1,0,1.63-.506,1.63-1.546V4.916A1.309,1.309,0,0,0,27.131,3.488ZM9.064,9.051C7.347,9.051,6.4,8.166,6.4,6.558V5.071a2.382,2.382,0,0,1,2.71-2.566,2.391,2.391,0,0,1,2.709,2.481v.7c0,.286-.141.419-.444.419H7.469v.576c0,.927.571,1.438,1.607,1.438a1.767,1.767,0,0,0,1.666-.827c.091-.128.164-.18.253-.18a.457.457,0,0,1,.215.072l.324.168a.316.316,0,0,1,.181.186.353.353,0,0,1-.073.281A2.726,2.726,0,0,1,9.064,9.051Zm.048-5.635A1.439,1.439,0,0,0,7.469,4.928v.347h3.285V4.928C10.754,3.953,10.171,3.416,9.112,3.416ZM18.7,8.9h-.324c-.234,0-.337-.064-.408-.252L16.9,5.108c-.08-.3-.133-.606-.171-.831a2.493,2.493,0,0,0-.056-.284h-.048c-.007.028-.018.092-.034.182-.038.219-.1.585-.194.934L15.333,8.644c-.061.211-.191.252-.4.252h-.312c-.2,0-.334-.041-.4-.252L12.552,3.021c-.047-.147-.052-.223-.017-.27s.109-.066.257-.066h.36c.329,0,.455.044.5.288l.9,3.249c.076.3.136.7.181.994.025.167.045.3.059.348h.048a3.562,3.562,0,0,0,.077-.391,9.719,9.719,0,0,1,.2-.963L16.1,3.069c.072-.239.128-.3.48-.3H16.8c.332,0,.394.058.467.288l1,3.129a10.486,10.486,0,0,1,.225,1.1c.022.136.038.234.05.276h.06c.013-.046.026-.152.045-.3A10.371,10.371,0,0,1,18.823,6.2l.9-3.225c.058-.234.154-.288.516-.288h.311c.14,0,.212.019.246.064s.027.147-.007.272l-1.7,5.622C19.041,8.825,18.934,8.9,18.7,8.9Zm30.044-.024h-.468c-.322,0-.382-.032-.491-.264L46.96,6.87a1.033,1.033,0,0,0-1.079-.66H44.874V8.572c0,.23-.07.3-.3.3h-.468c-.23,0-.3-.07-.3-.3V.288c0-.218.073-.288.3-.288h.468c.227,0,.3.07.3.288V5.215h.971L47.632,2.9c.156-.216.242-.216.563-.216h.455c.145,0,.233.03.262.089s0,.14-.082.246l-1.918,2.4a1.788,1.788,0,0,1,.958.983l1.055,2.134c.072.131.091.212.06.264S48.881,8.871,48.747,8.871Zm-6.678,0h-.5c-.215,0-.287-.072-.287-.287V4.916c0-.96-.49-1.427-1.5-1.427a4.536,4.536,0,0,0-1.391.216.2.2,0,0,0-.143.216V8.584c0,.215-.073.287-.288.287h-.5c-.206,0-.275-.072-.275-.287v-5a.592.592,0,0,1,.455-.671,5.759,5.759,0,0,1,2.29-.408,2.485,2.485,0,0,1,1.847.63,2.4,2.4,0,0,1,.588,1.745v3.7C42.357,8.8,42.284,8.871,42.069,8.871Zm-37.177,0h-.5c-.215,0-.287-.072-.287-.287V4.916c0-.96-.49-1.427-1.5-1.427A4.536,4.536,0,0,0,1.211,3.7a.2.2,0,0,0-.143.216V8.584c0,.215-.073.287-.288.287h-.5C.069,8.871,0,8.8,0,8.584v-5a.592.592,0,0,1,.455-.671,5.759,5.759,0,0,1,2.29-.408,2.485,2.485,0,0,1,1.847.63A2.4,2.4,0,0,1,5.18,4.88v3.7C5.18,8.8,5.107,8.871,4.891,8.871Z" transform="translate(50 26.048)" fill="#21262d"/>
</svg>
